# xmcd
#
# Track frame offsets: 
#        150
#        12597
#        26030
#        39762
#        51807
#        63387
#        76665
#        88540
#        100672
#        111175
#        124410
#        134317
#        146752
#        159915
#        173132
#        184622
#        195475
#        209050
#        221355
#        232817
#
# Disc length: 3268 seconds
#
# Revision: 3
# Processed by: cddbd v1.5.2PL0 Copyright (c) Steve Scherf et al.
# Submitted via: ExactAudioCopyFreeDBPlugin 1.0
#
DISCID=0a0cc214
DTITLE=Various Artist - Richard Searling Presents 100% Casino
DYEAR=1900
DGENRE=Northern Soul
TTITLE0=Larry Clinton - She's Wanted
TTITLE1=Cecil Washington - I Dont Like to Lose
TTITLE2=Doni Burdick - Bari Track
TTITLE3=Eddie Holman - Where I'm Not Wanted
TTITLE4=Detroit Executives - Cool Off
TTITLE5=Professionals, (The) - That's Why I Love You
TTITLE6=George Blackwell - Cant Lose My Head
TTITLE7=Melvin Davis - Find A Quiet Place
TTITLE8=Remarkables, (The) - I Cant Give Up on (Losing You)
TTITLE9=Little Joe Cook - I'm Falling in Love With You Baby
TTITLE10=Tony Hestor - Down in the Dumps
TTITLE11=Joe Mathews - She's My Beauty Queen
TTITLE12=Patti Young - Head and Shoulders
TTITLE13=Betty Boo - Say It Isn't So
TTITLE14=Dynamics, (The) - Yes I Love You Baby
TTITLE15=Ernest Moseley - Stubborn Heart
TTITLE16=Peoples Choice - Save All My Lovin' for You
TTITLE17=Jackie Beavers - I Need My Baby
TTITLE18=Billy Kennedy - (This is A) Groovy Generation
TTITLE19=Martha Starr - Love is the Only Solution
EXTD=
EXTT0=
EXTT1=
EXTT2=
EXTT3=
EXTT4=
EXTT5=
EXTT6=
EXTT7=
EXTT8=
EXTT9=
EXTT10=
EXTT11=
EXTT12=
EXTT13=
EXTT14=
EXTT15=
EXTT16=
EXTT17=
EXTT18=
EXTT19=
PLAYORDER=
